<svg width="31" height="26" viewBox="0 0 31 26" fill="none" xmlns="http://www.w3.org/2000/svg">
<path fill-rule="evenodd" clip-rule="evenodd" d="M15.9896 3.25078C18.4944 0.516623 21.9832 -0.520485 24.9417 0.285333C28.0914 1.14322 30.5 4.04688 30.5 8.86129C30.5 13.0095 27.5301 19.5754 16.2502 25.8575C16.2373 25.8649 16.224 25.8718 16.2106 25.878C16.0777 25.9399 15.9296 25.9384 15.8026 25.8839C15.789 25.8781 15.7756 25.8716 15.7625 25.8645C3.69248 19.5925 0.5 13.0311 0.5 8.86596C0.5 6.46241 1.13928 4.52706 2.21524 3.08098C3.2911 1.63502 4.78277 0.706649 6.4368 0.284861C9.58203 -0.517196 13.3086 0.508498 15.9896 3.25078ZM15.591 4.28831C13.1208 1.52505 9.57855 0.515694 6.68389 1.25385C5.23447 1.62346 3.94597 2.43008 3.01752 3.67792C2.08917 4.92563 1.5 6.64288 1.5 8.86596C1.5 12.468 4.26876 18.702 15.9917 24.8561C26.9083 18.7107 29.5 12.4809 29.5 8.86129C29.5 4.41983 27.3224 1.97018 24.6789 1.25018C21.9952 0.519191 18.6903 1.52802 16.3855 4.31886C16.2097 4.53179 15.8945 4.56185 15.6816 4.38602C15.6464 4.3569 15.6161 4.32397 15.591 4.28831Z" fill="black"/>
</svg>
