<svg width="31" height="27" viewBox="0 0 31 27" fill="none" xmlns="http://www.w3.org/2000/svg">
<path fill-rule="evenodd" clip-rule="evenodd" d="M15.9896 3.37138C18.4944 0.637229 21.9832 -0.399879 24.9417 0.405939C28.0914 1.26383 30.5 4.16748 30.5 8.9819C30.5 13.1301 27.5301 19.696 16.2502 25.9781C16.2373 25.9855 16.224 25.9924 16.2106 25.9986C16.0777 26.0605 15.9296 26.059 15.8026 26.0045C15.789 25.9987 15.7756 25.9922 15.7625 25.9852C3.69248 19.7131 0.5 13.1517 0.5 8.98657C0.5 6.58302 1.13928 4.64767 2.21524 3.20158C3.2911 1.75563 4.78277 0.827254 6.4368 0.405466C9.58203 -0.396591 13.3086 0.629104 15.9896 3.37138ZM15.591 4.40892C13.1208 1.64565 9.57855 0.636299 6.68389 1.37446C5.23447 1.74407 3.94597 2.55068 3.01752 3.79852C2.08917 5.04624 1.5 6.76349 1.5 8.98657C1.5 12.5886 4.26876 18.8226 15.9917 24.9767C26.9083 18.8313 29.5 12.6015 29.5 8.9819C29.5 4.54044 27.3224 2.09079 24.6789 1.37079C21.9952 0.639796 18.6903 1.64862 16.3855 4.43947C16.2097 4.65239 15.8945 4.68246 15.6816 4.50662C15.6464 4.47751 15.6161 4.44457 15.591 4.40892Z" fill="#F05656"/>
</svg>
