<svg width="90" height="31" viewBox="0 0 90 31" fill="none" xmlns="http://www.w3.org/2000/svg">
<path fill-rule="evenodd" clip-rule="evenodd" d="M23.5224 0H5.11225C2.46735 0 0 2.4924 0 5.1646V25.8354C0 28.5076 2.46735 31 5.11225 31H25.5673C28.2184 31 30.6796 28.5076 30.6796 25.8354V5.1646C30.6796 2.4924 28.2245 0 25.5673 0H23.5224Z" fill="#35C5F0"/>
<path fill-rule="evenodd" clip-rule="evenodd" d="M22.4878 16.1324C21.9513 16.1324 21.4368 15.917 21.0569 15.5335C20.6771 15.15 20.4628 14.6296 20.4612 14.0864C20.4612 13.5421 20.6747 13.0201 21.0548 12.6353C21.4348 12.2504 21.9503 12.0342 22.4878 12.0342C23.0242 12.0342 23.5387 12.2496 23.9186 12.6331C24.2984 13.0166 24.5127 13.537 24.5143 14.0802C24.5143 14.6245 24.3008 15.1465 23.9207 15.5313C23.5407 15.9162 23.0252 16.1324 22.4878 16.1324ZM20.9755 21.5264H9.28163V13.6896L15.1286 9.56661L18.4776 11.9288C18.1299 12.5911 17.949 13.3301 17.951 14.0802C17.9522 15.0288 18.2436 15.9536 18.7853 16.7275C19.3269 17.5014 20.0921 18.0863 20.9755 18.4016V21.514V21.5264ZM22.4878 9.49841C21.9735 9.49841 21.4776 9.58521 21.0184 9.74641L16.1633 6.33641C15.8586 6.122 15.4965 6.00708 15.1255 6.00708C14.7545 6.00708 14.3924 6.122 14.0878 6.33641L6.82653 11.4452C6.58655 11.6142 6.3905 11.8395 6.25511 12.1018C6.11971 12.3642 6.04899 12.6558 6.04898 12.9518V22.9524C6.04978 23.1934 6.09745 23.4319 6.18927 23.6542C6.28109 23.8766 6.41525 24.0784 6.5841 24.2483C6.75295 24.4181 6.95318 24.5526 7.17336 24.6441C7.39354 24.7356 7.62936 24.7822 7.86735 24.7814H22.3898C22.8704 24.7814 23.3314 24.5881 23.6712 24.2439C24.0111 23.8997 24.202 23.4329 24.202 22.9462V18.3334C25.036 17.9896 25.7499 17.402 26.2526 16.6456C26.7553 15.8892 27.024 14.9982 27.0245 14.0864C27.0245 13.4834 26.9071 12.8863 26.679 12.3292C26.451 11.7722 26.1167 11.2661 25.6953 10.84C25.274 10.4139 24.7738 10.0761 24.2234 9.84587C23.673 9.61566 23.0832 9.49759 22.4878 9.49841Z" fill="white"/>
<path fill-rule="evenodd" clip-rule="evenodd" d="M47.4245 23.002H43.9225V19.7904C43.9225 19.5134 43.8138 19.2476 43.6203 19.0517C43.4268 18.8558 43.1644 18.7457 42.8908 18.7457C42.6172 18.7457 42.3548 18.8558 42.1614 19.0517C41.9679 19.2476 41.8592 19.5134 41.8592 19.7904V23.002H38.3572C38.2221 23.002 38.0883 23.029 37.9635 23.0813C37.8387 23.1337 37.7254 23.2104 37.6298 23.3071C37.5343 23.4038 37.4586 23.5187 37.4069 23.645C37.3552 23.7714 37.3286 23.9068 37.3286 24.0436C37.3286 24.1804 37.3552 24.3159 37.4069 24.4422C37.4586 24.5686 37.5343 24.6834 37.6298 24.7801C37.7254 24.8769 37.8387 24.9536 37.9635 25.0059C38.0883 25.0583 38.2221 25.0852 38.3572 25.0852H47.4184C47.5535 25.0852 47.6872 25.0583 47.812 25.0059C47.9368 24.9536 48.0502 24.8769 48.1457 24.7801C48.2412 24.6834 48.317 24.5686 48.3687 24.4422C48.4203 24.3159 48.4469 24.1804 48.4469 24.0436C48.4469 23.9068 48.4203 23.7714 48.3687 23.645C48.317 23.5187 48.2412 23.4038 48.1457 23.3071C48.0502 23.2104 47.9368 23.1337 47.812 23.0813C47.6872 23.029 47.5535 23.002 47.4184 23.002M40.5245 11.4886C40.5245 8.19023 42.0123 7.69423 42.8939 7.69423C43.7816 7.69423 45.2694 8.19023 45.2694 11.4886V11.749C45.2694 15.0474 43.7816 15.5434 42.9 15.5434C42.0123 15.5434 40.5306 15.0474 40.5306 11.749V11.4886H40.5245ZM42.8939 17.6266C45.6306 17.6266 47.3327 15.376 47.3327 11.749V11.4886C47.3327 7.86163 45.6306 5.61103 42.9 5.61103C40.1694 5.61103 38.4612 7.86163 38.4612 11.4886V11.749C38.4612 15.376 40.1633 17.6266 42.9 17.6266H42.8939ZM61.0592 12.3442H49.9837C49.8415 12.3331 49.6986 12.3519 49.564 12.3994C49.4293 12.4468 49.3058 12.522 49.2012 12.6201C49.0966 12.7182 49.0131 12.8371 48.956 12.9694C48.8989 13.1017 48.8695 13.2445 48.8695 13.3889C48.8695 13.5333 48.8989 13.6761 48.956 13.8084C49.0131 13.9408 49.0966 14.0597 49.2012 14.1578C49.3058 14.2559 49.4293 14.331 49.564 14.3785C49.6986 14.426 49.8415 14.4447 49.9837 14.4336H61.0531C61.3267 14.4336 61.5891 14.3236 61.7825 14.1276C61.976 13.9317 62.0847 13.666 62.0847 13.3889C62.0847 13.1119 61.976 12.8461 61.7825 12.6502C61.5891 12.4543 61.3267 12.3442 61.0531 12.3442M59.951 23.4794C54.9184 24.8 53.2347 24.0498 52.7388 23.6654C52.4204 23.4174 52.2735 23.0826 52.2735 22.599V21.979H59.5714C60.1408 21.979 60.6061 21.5078 60.6061 20.9312V17.2856C60.6061 16.709 60.1408 16.244 59.5714 16.244H51.2449C50.9721 16.244 50.7105 16.3538 50.5176 16.5491C50.3247 16.7444 50.2163 17.0094 50.2163 17.2856C50.2163 17.5619 50.3247 17.8268 50.5176 18.0221C50.7105 18.2175 50.9721 18.3272 51.2449 18.3272H58.5429V19.8896H51.2449C50.6694 19.8896 50.2102 20.3608 50.2102 20.9374V22.599C50.2102 23.7274 50.651 24.6698 51.4776 25.3146C52.3286 25.9842 53.5653 26.3128 55.1816 26.3128C56.6388 26.3128 58.4021 26.04 60.4653 25.5068C60.5972 25.4729 60.7211 25.4128 60.8298 25.3301C60.9386 25.2474 61.0301 25.1436 61.099 25.0248C61.1679 24.906 61.2128 24.7746 61.2312 24.6381C61.2496 24.5016 61.2411 24.3628 61.2061 24.2296C61.1356 23.9633 60.9644 23.7359 60.7294 23.5967C60.4945 23.4574 60.2148 23.4175 59.951 23.4856M51.7653 10.54H59.449C59.5912 10.5511 59.734 10.5324 59.8687 10.4849C60.0033 10.4374 60.1269 10.3623 60.2315 10.2642C60.3361 10.1661 60.4196 10.0472 60.4767 9.91485C60.5338 9.78254 60.5632 9.63971 60.5632 9.49533C60.5632 9.35094 60.5338 9.20811 60.4767 9.07581C60.4196 8.9435 60.3361 8.82457 60.2315 8.72647C60.1269 8.62838 60.0033 8.55324 59.8687 8.50577C59.734 8.4583 59.5912 8.43953 59.449 8.45063H52.8V5.96443C52.8 5.68653 52.691 5.42002 52.497 5.22352C52.3029 5.02702 52.0397 4.91663 51.7653 4.91663C51.4909 4.91663 51.2277 5.02702 51.0337 5.22352C50.8396 5.42002 50.7306 5.68653 50.7306 5.96443V9.49843C50.7306 10.0812 51.1959 10.5462 51.7653 10.5462M88.3959 5.27623C87.8265 5.27623 87.3551 5.74123 87.3551 6.31783V14.7312C87.3551 15.0091 87.4641 15.2756 87.6582 15.4721C87.8522 15.6686 88.1154 15.779 88.3898 15.779C88.6642 15.779 88.9274 15.6686 89.1215 15.4721C89.3155 15.2756 89.4245 15.0091 89.4245 14.7312V6.31163C89.4245 5.73503 88.9653 5.26383 88.3959 5.26383M83.1796 14.4522C83.2747 14.7113 83.4671 14.9219 83.7148 15.038C83.9625 15.1541 84.2454 15.1664 84.5021 15.0722C84.7586 14.9785 84.9678 14.7854 85.0838 14.5354C85.1997 14.2854 85.2129 13.999 85.1204 13.7392C85.0898 13.6462 84.4102 11.8172 82.7204 10.509L85.347 7.55783C85.4785 7.4082 85.5646 7.22334 85.595 7.0254C85.6254 6.82746 85.5988 6.62484 85.5184 6.44183C85.4369 6.25745 85.3046 6.10084 85.1374 5.99084C84.9701 5.88085 84.775 5.82215 84.5755 5.82183H78.147C77.8742 5.82183 77.6125 5.93157 77.4196 6.1269C77.2267 6.32224 77.1184 6.58718 77.1184 6.86343C77.1184 7.13968 77.2267 7.40461 77.4196 7.59995C77.6125 7.79529 77.8742 7.90503 78.147 7.90503H82.2612L80.3633 10.0378V10.044L77.3755 13.392C77.2409 13.542 77.1524 13.7285 77.1209 13.9286C77.0894 14.1288 77.1162 14.3339 77.1981 14.5188C77.28 14.7038 77.4134 14.8605 77.5819 14.9698C77.7504 15.0791 77.9468 15.1363 78.147 15.1342C78.4286 15.1342 78.7102 15.0164 78.9123 14.7932L81.3368 12.0652C82.6225 12.9828 83.1735 14.4212 83.1796 14.4522ZM86.7796 23.963H81.7959C81.6427 23.963 81.4957 23.9018 81.3868 23.7927C81.2779 23.6836 81.2159 23.5354 81.2143 23.3802V21.979H87.3612V23.3802C87.3612 23.7026 87.1041 23.963 86.7796 23.963ZM88.3959 17.236C87.8265 17.236 87.3612 17.701 87.3612 18.2776V19.8896H81.2143V18.2776C81.2143 18.0006 81.1056 17.7348 80.9121 17.5389C80.7187 17.343 80.4563 17.2329 80.1827 17.2329C79.9091 17.2329 79.6467 17.343 79.4532 17.5389C79.2597 17.7348 79.151 18.0006 79.151 18.2776V23.3802C79.1543 24.0884 79.4344 24.7665 79.93 25.2661C80.4257 25.7657 81.0966 26.0462 81.7959 26.0462H86.7796C87.479 26.0462 88.1499 25.7657 88.6455 25.2661C89.1412 24.7665 89.4213 24.0884 89.4245 23.3802V18.2776C89.4245 17.701 88.9653 17.236 88.3959 17.236ZM67.5184 7.69423C69.0919 7.69423 69.1714 10.7384 69.1714 11.3522C69.1714 11.9598 69.0919 14.9978 67.5184 14.9978C65.9449 14.9978 65.8653 11.9598 65.8653 11.346C65.8653 10.7384 65.9449 7.69423 67.5184 7.69423ZM67.5184 17.0872C68.1339 17.0857 68.7364 16.9079 69.2564 16.5744C69.7764 16.2409 70.1927 15.7653 70.4572 15.2024C70.9653 14.2352 71.2347 12.9084 71.2347 11.346C71.2347 9.78363 70.9653 8.46303 70.4572 7.50203C70.1936 6.93801 69.7777 6.4611 69.2576 6.12645C68.7376 5.7918 68.1346 5.6131 67.5184 5.61103C66.9029 5.61255 66.3003 5.79032 65.7803 6.12383C65.2603 6.45733 64.8441 6.93297 64.5796 7.49583C64.0653 8.46303 63.7959 9.78983 63.7959 11.346C63.7959 12.9022 64.0653 14.2352 64.5796 15.2024C64.8441 15.7653 65.2603 16.2409 65.7803 16.5744C66.3003 16.9079 66.9029 17.0857 67.5184 17.0872Z" fill="black"/>
<path fill-rule="evenodd" clip-rule="evenodd" d="M73.8674 5.27002C73.298 5.27002 72.8327 5.73502 72.8327 6.31162V19.0836C71.4674 19.5114 68.7551 19.8896 65.4612 19.8896H63.8878C63.6142 19.8896 63.3518 19.9997 63.1583 20.1956C62.9648 20.3915 62.8561 20.6572 62.8561 20.9343C62.8561 21.2114 62.9648 21.4771 63.1583 21.673C63.3518 21.869 63.6142 21.979 63.8878 21.979H65.4612C67.3408 21.979 70.5857 21.8116 72.8388 21.2412V24.7132C72.8388 24.9903 72.9475 25.256 73.141 25.4519C73.3344 25.6479 73.5968 25.7579 73.8704 25.7579C74.144 25.7579 74.4064 25.6479 74.5999 25.4519C74.7934 25.256 74.9021 24.9903 74.9021 24.7132V6.31782C74.9021 5.74122 74.4368 5.27002 73.8674 5.27002Z" fill="black"/>
</svg>
